<?xml version="1.0" encoding="UTF-8"?>
<svg version="1.1" xmlns="http://www.w3.org/2000/svg" width="312" height="108">
<path d="M0 0 C6.74418027 -0.12686439 13.48805244 -0.21437811 20.2331543 -0.2746582 C22.52721658 -0.29978928 24.8211989 -0.33389969 27.11499023 -0.37719727 C30.41410049 -0.43790832 33.71215146 -0.46622437 37.01171875 -0.48828125 C38.03585373 -0.51408768 39.05998871 -0.5398941 40.11515808 -0.56648254 C47.22945473 -0.56927944 47.22945473 -0.56927944 51.15551758 2.33129883 C53.64146137 5.92810248 53.56757475 7.67224255 53 12 C51.96716241 17.10899814 51.10581073 20.91990579 47.3125 24.625 C46.549375 25.07875 45.78625 25.5325 45 26 C45.495 26.350625 45.99 26.70125 46.5 27.0625 C48.28476115 29.36781648 48.42597211 30.95839605 48.28515625 33.8359375 C47.53311358 39.54322026 46.47936003 44.83765807 43.19726562 49.63500977 C38.28704227 53.26706029 33.64801409 52.62115309 27.69921875 52.48828125 C26.50770706 52.48120651 25.31619537 52.47413177 24.08857727 52.46684265 C20.28757628 52.43888186 16.48805486 52.37613474 12.6875 52.3125 C10.10874525 52.28741956 7.52996738 52.26460596 4.95117188 52.24414062 C-1.36638918 52.18904931 -7.68308888 52.10540375 -14 52 C-13.68836914 51.01974854 -13.37673828 50.03949707 -13.05566406 49.02954102 C-10.10868973 39.71053938 -7.34428593 30.36174256 -4.75 20.9375 C-4.399375 19.68517578 -4.04875 18.43285156 -3.6875 17.14257812 C-3.18476563 15.32209961 -3.18476563 15.32209961 -2.671875 13.46484375 C-2.3737793 12.388396 -2.07568359 11.31194824 -1.76855469 10.20288086 C-0.95568023 6.81530144 -0.44125002 3.45400707 0 0 Z M20 9 C19.01 12.96 18.02 16.92 17 21 C19.12472576 21.05386629 21.24983652 21.09273071 23.375 21.125 C25.15003906 21.15980469 25.15003906 21.15980469 26.9609375 21.1953125 C30.11153817 21.32866229 30.11153817 21.32866229 32 19 C32.46162427 16.56747339 32.46162427 16.56747339 32.625 13.875 C32.74875 12.26625 32.8725 10.6575 33 9 C28.71 9 24.42 9 20 9 Z M14 30 C12.515 36.435 12.515 36.435 11 43 C15.29 43 19.58 43 24 43 C26.63875488 37.1989305 26.63875488 37.1989305 28 31 C26.88873341 29.66098208 26.88873341 29.66098208 24.05859375 29.90234375 C22.86363281 29.91394531 21.66867188 29.92554687 20.4375 29.9375 C17.2509375 29.9684375 17.2509375 29.9684375 14 30 Z " fill="#195DA9" transform="translate(14,1)"/>
<path d="M0 0 C0.89676453 -0.00807175 1.79352905 -0.01614349 2.71746826 -0.02445984 C4.62070776 -0.03831958 6.52397232 -0.04903324 8.42724609 -0.05688477 C11.33349102 -0.07406573 14.23858921 -0.11793037 17.14453125 -0.16210938 C18.99217912 -0.17223872 20.83983668 -0.18075406 22.6875 -0.1875 C23.9893222 -0.21376213 23.9893222 -0.21376213 25.31744385 -0.24055481 C29.44739645 -0.22577044 31.56112041 -0.10621335 35.13574219 2.13989258 C37.109375 4.23828125 37.109375 4.23828125 38.109375 6.23828125 C37.86089477 14.06540856 35.90724648 21.24111169 33.74951172 28.72436523 C33.41330811 29.92041382 33.41330811 29.92041382 33.0703125 31.140625 C32.75779541 32.21558228 32.75779541 32.21558228 32.43896484 33.31225586 C31.91749076 35.44881803 31.91749076 35.44881803 33.109375 38.23828125 C25.77604167 38.23828125 18.44270833 38.23828125 11.109375 38.23828125 C9.99115356 38.27755737 9.99115356 38.27755737 8.8503418 38.31762695 C5.83277268 38.42186305 2.81554473 38.48639768 -0.203125 38.55078125 C-1.24919922 38.59267578 -2.29527344 38.63457031 -3.37304688 38.67773438 C-11.14558863 38.80142218 -11.14558863 38.80142218 -15.05859375 35.84375 C-18.59838868 30.80954272 -17.91032831 27.16530673 -16.890625 21.23828125 C-15.13076657 16.39867056 -13.46820121 14.49990094 -8.890625 12.23828125 C-5.9362793 11.8059082 -5.9362793 11.8059082 -2.71484375 11.7265625 C-1.55791016 11.69111328 -0.40097656 11.65566406 0.79101562 11.61914062 C1.98919922 11.59658203 3.18738281 11.57402344 4.421875 11.55078125 C6.2481543 11.49954102 6.2481543 11.49954102 8.11132812 11.44726562 C11.11058514 11.36493308 14.10955514 11.29573204 17.109375 11.23828125 C17.439375 10.24828125 17.769375 9.25828125 18.109375 8.23828125 C8.209375 8.23828125 -1.690625 8.23828125 -11.890625 8.23828125 C-9.21732539 -1.11826739 -8.66432623 0.07306435 0 0 Z M3.109375 20.23828125 C2.75875 21.86765625 2.408125 23.49703125 2.046875 25.17578125 C1.84964844 26.09230469 1.65242188 27.00882813 1.44921875 27.953125 C1.33707031 28.70722656 1.22492188 29.46132813 1.109375 30.23828125 C2.14344173 31.49777174 2.14344173 31.49777174 4.39453125 31.3359375 C5.31105469 31.32433594 6.22757813 31.31273437 7.171875 31.30078125 C8.09097656 31.29175781 9.01007813 31.28273438 9.95703125 31.2734375 C10.66730469 31.26183594 11.37757812 31.25023437 12.109375 31.23828125 C12.8209375 29.62953125 12.8209375 29.62953125 13.546875 27.98828125 C13.81371094 27.385 14.08054687 26.78171875 14.35546875 26.16015625 C15.27687301 23.93235985 15.27687301 23.93235985 16.109375 20.23828125 C11.819375 20.23828125 7.529375 20.23828125 3.109375 20.23828125 Z " fill="#195DA8" transform="translate(80.890625,14.76171875)"/>
<path d="M0 0 C2.13329342 -0.00968688 4.26561475 -0.04072669 6.39868164 -0.07226562 C7.77042076 -0.07879872 9.14216672 -0.08404799 10.51391602 -0.08789062 C11.75052979 -0.09723633 12.98714355 -0.10658203 14.26123047 -0.11621094 C19.42159304 0.398029 23.49635442 1.61383396 26.90063477 5.74023438 C28.6419202 12.24103332 26.78674254 18.34301882 23.83813477 24.24023438 C13.60813477 24.24023438 3.37813477 24.24023438 -7.16186523 24.24023438 C-7.16186523 26.55023438 -7.16186523 28.86023438 -7.16186523 31.24023438 C2.73813477 31.24023438 12.63813477 31.24023438 22.83813477 31.24023438 C20.83813477 36.24023438 20.83813477 36.24023438 18.83813477 39.24023438 C15.77430443 39.55673392 12.91701449 39.68416793 9.84985352 39.67382812 C8.95450394 39.67906998 8.05915436 39.68431183 7.13667297 39.68971252 C5.23940061 39.69614382 3.34208843 39.69478145 1.44482422 39.6862793 C-1.45279562 39.67779751 -4.34842617 39.70646853 -7.24584961 39.73828125 C-9.08894798 39.73989408 -10.93204983 39.73931418 -12.77514648 39.73632812 C-14.07226311 39.75317909 -14.07226311 39.75317909 -15.39558411 39.77037048 C-19.50939117 39.72296191 -21.6290863 39.57602231 -25.18603516 37.33422852 C-28.1828281 34.15821306 -28.1828281 34.15821306 -28.11987305 31.40136719 C-27.47234414 25.79193096 -26.39785981 20.43580454 -24.91186523 14.99023438 C-24.71979492 14.21421875 -24.52772461 13.43820313 -24.32983398 12.63867188 C-22.96570777 7.61113752 -21.39922036 4.55307566 -17.16186523 1.24023438 C-11.77939433 -0.66974824 -5.64796675 0.01551817 0 0 Z M-2.16186523 8.24023438 C-3.64686523 12.20023438 -3.64686523 12.20023438 -5.16186523 16.24023438 C-1.20186523 16.24023438 2.75813477 16.24023438 6.83813477 16.24023438 C7.21876697 13.91414868 7.55083421 11.57968173 7.83813477 9.24023438 C6.82977415 8.0075609 6.82977415 8.0075609 4.77172852 8.14257812 C3.53616211 8.15998047 3.53616211 8.15998047 2.27563477 8.17773438 C1.03620117 8.19126953 1.03620117 8.19126953 -0.22827148 8.20507812 C-1.18540039 8.22248047 -1.18540039 8.22248047 -2.16186523 8.24023438 Z " fill="#195DA8" transform="translate(242.161865234375,13.759765625)"/>
<path d="M0 0 C3.87339979 -0.29160411 7.7439852 -0.46832697 11.625 -0.625 C13.26662109 -0.75068359 13.26662109 -0.75068359 14.94140625 -0.87890625 C18.24113643 -0.97889807 20.83283381 -0.95206526 24 0 C26.80359925 3.01357756 28.4613654 6.20264638 30 10 C33.99319393 7.88116241 36.98731797 6.06052759 40.0625 2.75 C43.60727266 -0.50073622 46.73470758 -0.38446236 51.4375 -0.375 C53.62647024 -0.27913269 55.81505105 -0.16364389 58 0 C58 0.66 58 1.32 58 2 C56.31933594 3.35693359 56.31933594 3.35693359 53.984375 4.8984375 C53.14519531 5.46046875 52.30601562 6.0225 51.44140625 6.6015625 C50.55324219 7.18679687 49.66507813 7.77203125 48.75 8.375 C47.01288857 9.5245213 45.27842048 10.67804907 43.546875 11.8359375 C42.38430176 12.60236572 42.38430176 12.60236572 41.19824219 13.38427734 C38.89579896 15.07658846 36.96782217 16.93305872 35 19 C35.61488281 20.02480469 36.22976562 21.04960938 36.86328125 22.10546875 C40.2421875 27.73697917 43.62109375 33.36848958 47 39 C38.75 39 30.5 39 22 39 C20.68 36.36 19.36 33.72 18 31 C17.38511719 31.40992187 16.77023438 31.81984375 16.13671875 32.2421875 C5.625 39.25 5.625 39.25 -1.1875 39.125 C-2.45980469 39.10695312 -3.73210937 39.08890625 -5.04296875 39.0703125 C-6.01878906 39.04710937 -6.99460937 39.02390625 -8 39 C-3.6493649 35.46457266 0.82238398 32.10454601 5.3125 28.75 C6.05306641 28.19570313 6.79363281 27.64140625 7.55664062 27.0703125 C9.37054713 25.71280828 11.18501238 24.35605823 13 23 C11.7527532 20.79007241 10.50229753 18.58206337 9.25 16.375 C8.90195313 15.75753906 8.55390625 15.14007813 8.1953125 14.50390625 C6.48510874 11.49521444 4.73184396 8.60156957 2.796875 5.7265625 C1 3 1 3 0 0 Z " fill="#195EA9" transform="translate(124,14)"/>
<path d="M0 0 C-0.66 2.64 -1.32 5.28 -2 8 C2.95 8 7.9 8 13 8 C12 14 12 14 11 16 C5.72 16 0.44 16 -5 16 C-5.28875 17.835625 -5.5775 19.67125 -5.875 21.5625 C-6.46007368 25.11055395 -7.07135676 28.56060743 -8.125 32 C-9.18666667 35.11916667 -9.18666667 35.11916667 -9 39 C-3.39 39 2.22 39 8 39 C7.01 41.64 6.02 44.28 5 47 C0.96174934 47.12406007 -3.07575638 47.21455045 -7.11547852 47.2746582 C-8.48807102 47.29972617 -9.86053102 47.33379082 -11.23266602 47.37719727 C-13.21050696 47.43817531 -15.18934184 47.46361009 -17.16796875 47.48828125 C-18.95110474 47.52755737 -18.95110474 47.52755737 -20.77026367 47.56762695 C-24.97894356 46.82795043 -26.42560303 45.35032433 -29 42 C-31.12211695 34.69951949 -27.71414189 25.96325665 -25.69189453 18.96533203 C-25.11910903 16.97957695 -24.56801732 14.98868271 -24.01953125 12.99609375 C-21.27873884 3.27873884 -21.27873884 3.27873884 -19 1 C-16.171875 0.5859375 -16.171875 0.5859375 -12.75 0.375 C-11.07164062 0.26285156 -11.07164062 0.26285156 -9.359375 0.1484375 C-6.23378505 0.01033004 -3.1280748 -0.02843704 0 0 Z " fill="#1A5DA8" transform="translate(205,6)"/>
<path d="M0 0 C6.27 0 12.54 0 19 0 C19.33 0.66 19.66 1.32 20 2 C20.51046875 1.67257812 21.0209375 1.34515625 21.546875 1.0078125 C24.86772037 -0.35648384 27.67372568 -0.1912273 31.25 -0.125 C32.51328125 -0.10695313 33.7765625 -0.08890625 35.078125 -0.0703125 C36.04234375 -0.04710937 37.0065625 -0.02390625 38 0 C37.14285714 8.57142857 37.14285714 8.57142857 35 12 C34.34 11.67 33.68 11.34 33 11 C30.44842345 10.9283265 27.92527029 10.90691558 25.375 10.9375 C24.31539063 10.94426758 24.31539063 10.94426758 23.234375 10.95117188 C21.48954725 10.96296125 19.744763 10.98089676 18 11 C17.87753906 11.97582031 17.75507813 12.95164062 17.62890625 13.95703125 C16.90375235 19.03822426 15.61560804 23.97272146 14.37304688 28.94726562 C13.52478048 32.43044007 13 35.3923566 13 39 C5.41 39 -2.18 39 -10 39 C-9.01 36.36 -8.02 33.72 -7 31 C-5.86203546 27.38015575 -4.87228432 23.72338541 -3.875 20.0625 C-3.61074219 19.12470703 -3.34648437 18.18691406 -3.07421875 17.22070312 C-2.82027344 16.29322266 -2.56632812 15.36574219 -2.3046875 14.41015625 C-2.07765137 13.58652588 -1.85061523 12.76289551 -1.61669922 11.91430664 C-0.78697198 7.99330346 -0.44259095 3.98331853 0 0 Z " fill="#195DA9" transform="translate(274,14)"/>
<path d="M0 0 C1.98 0 3.96 0 6 0 C6.13277344 0.63808594 6.26554688 1.27617188 6.40234375 1.93359375 C6.57894531 2.75988281 6.75554687 3.58617188 6.9375 4.4375 C7.11152344 5.26121094 7.28554687 6.08492188 7.46484375 6.93359375 C7.80752994 8.97661204 7.80752994 8.97661204 9 10 C9.99 6.7 10.98 3.4 12 0 C13.65 0 15.3 0 17 0 C17.99 3.3 18.98 6.6 20 10 C21.66905241 6.66189518 22.8741386 3.53842155 24 0 C25.65 0 27.3 0 29 0 C28.55327444 5.47238812 27.41043351 10.6370607 26 15.9375 C25.82178711 16.61240479 25.64357422 17.28730957 25.45996094 17.98266602 C24.1297533 22.8702467 24.1297533 22.8702467 23 24 C21.35 24 19.7 24 18 24 C16.515 19.05 16.515 19.05 15 14 C13.68 17.3 12.36 20.6 11 24 C9.35 24 7.7 24 6 24 C4.99353274 20.56435978 3.9959455 17.12620371 3 13.6875 C2.71382812 12.71103516 2.42765625 11.73457031 2.1328125 10.72851562 C1.86210937 9.79072266 1.59140625 8.85292969 1.3125 7.88671875 C1.06113281 7.02264404 0.80976563 6.15856934 0.55078125 5.26831055 C0 3 0 3 0 0 Z " fill="#696A6C" transform="translate(141,78)"/>
<path d="M0 0 C10.625 -0.125 10.625 -0.125 14 1 C15.7015625 0.690625 15.7015625 0.690625 17.4375 0.375 C21 0 21 0 23.20703125 0.99609375 C25.86267184 3.96416264 25.4329262 6.91992378 25.25 10.6875 C25.23195313 11.38939453 25.21390625 12.09128906 25.1953125 12.81445312 C25.14826213 14.54355436 25.07651873 16.27195205 25 18 C23.35 18 21.7 18 20 18 C19.67 14.04 19.34 10.08 19 6 C18.01 6 17.02 6 16 6 C15.67 9.96 15.34 13.92 15 18 C13.35 18 11.7 18 10 18 C9.67 14.04 9.34 10.08 9 6 C8.01 6 7.02 6 6 6 C5.67 9.96 5.34 13.92 5 18 C3.35 18 1.7 18 0 18 C0 12.06 0 6.12 0 0 Z " fill="#6A696B" transform="translate(88,84)"/>
<path d="M0 0 C1.98 0 3.96 0 6 0 C6 3.3 6 6.6 6 10 C8.31 10 10.62 10 13 10 C13 6.7 13 3.4 13 0 C14.65 0 16.3 0 18 0 C18 7.92 18 15.84 18 24 C16.35 24 14.7 24 13 24 C13 20.7 13 17.4 13 14 C10.69 14 8.38 14 6 14 C6 17.3 6 20.6 6 24 C4.02 24 2.04 24 0 24 C0 16.08 0 8.16 0 0 Z " fill="#696B6C" transform="translate(5,78)"/>
<path d="M0 0 C1.65 0 3.3 0 5 0 C6.34146494 3.43438215 7.67175905 6.87298417 9 10.3125 C9.3815625 11.28896484 9.763125 12.26542969 10.15625 13.27148438 C10.5171875 14.20927734 10.878125 15.14707031 11.25 16.11328125 C11.58515625 16.97735596 11.9203125 17.84143066 12.265625 18.73168945 C13 21 13 21 13 24 C11.02 24 9.04 24 7 24 C6.67 23.01 6.34 22.02 6 21 C3.69 21 1.38 21 -1 21 C-1.33 21.99 -1.66 22.98 -2 24 C-3.98 24 -5.96 24 -8 24 C-5.96136383 15.72943539 -3.17712327 7.89885589 0 0 Z M2 9 C1.34 11.31 0.68 13.62 0 16 C1.65 16 3.3 16 5 16 C4.34 13.69 3.68 11.38 3 9 C2.67 9 2.34 9 2 9 Z " fill="#6A6A6C" transform="translate(245,78)"/>
<path d="M0 0 C1.65 0 3.3 0 5 0 C5 2.31 5 4.62 5 7 C5.9075 6.773125 6.815 6.54625 7.75 6.3125 C11 6 11 6 13.1875 7 C15.87010402 9.96011478 15.43334099 12.9113807 15.25 16.6875 C15.23195312 17.38939453 15.21390625 18.09128906 15.1953125 18.81445312 C15.14826213 20.54355436 15.07651873 22.27195205 15 24 C13.35 24 11.7 24 10 24 C9.67 20.04 9.34 16.08 9 12 C8.01 12 7.02 12 6 12 C5.67 15.96 5.34 19.92 5 24 C3.35 24 1.7 24 0 24 C0 16.08 0 8.16 0 0 Z " fill="#6A6A6C" transform="translate(213,78)"/>
<path d="M0 0 C2.3125 1 2.3125 1 4 3 C4.63443694 5.70302123 4.81703246 8.20974508 5 11 C1.7 11.33 -1.6 11.66 -5 12 C-5 12.66 -5 13.32 -5 14 C-2.36 13.67 0.28 13.34 3 13 C3.33 14.32 3.66 15.64 4 17 C0.64442638 19.37686465 -2.25982986 19.2295527 -6.16015625 18.59765625 C-8 18 -8 18 -10 15.875 C-11.62467203 11.2040679 -11.77689745 7.62442193 -9.625 3.125 C-6.84788186 -0.50661604 -4.40524106 -0.35241928 0 0 Z M-5 5 C-5.33 5.66 -5.66 6.32 -6 7 C-4.02 7 -2.04 7 0 7 C-0.33 6.34 -0.66 5.68 -1 5 C-2.32 5 -3.64 5 -5 5 Z " fill="#686A6C" transform="translate(180,84)"/>
<path d="M0 0 C1.65 0 3.3 0 5 0 C5.99 2.64 6.98 5.28 8 8 C8.99 5.36 9.98 2.72 11 0 C12.98 0 14.96 0 17 0 C15.87942681 3.25154331 14.75277056 6.50094672 13.625 9.75 C13.30789063 10.67039062 12.99078125 11.59078125 12.6640625 12.5390625 C12.3546875 13.42851563 12.0453125 14.31796875 11.7265625 15.234375 C11.44377441 16.05131836 11.16098633 16.86826172 10.86962891 17.70996094 C10.04060935 19.89306129 9.08327115 21.93306884 8 24 C6.02 24 4.04 24 2 24 C2 22.68 2 21.36 2 20 C2.66 19.67 3.32 19.34 4 19 C3.60689996 14.59727951 3.05893155 10.80991324 1.4375 6.6875 C0 3 0 3 0 0 Z " fill="#686A6C" transform="translate(278,84)"/>
<path d="M0 0 C2.70996206 3.31217585 2.73158143 6.8821108 2.6875 11.0625 C2.1875 14 2.1875 14 0.6875 16.0625 C-2.91912477 17.62763905 -5.24677742 18.27564452 -9.125 17.5 C-12.0616205 15.57022081 -12.57881346 14.51082673 -13.3125 11.0625 C-13.37120409 6.88717175 -13.3296282 3.30565669 -10.625 0 C-6.80100947 -1.55026643 -3.82399053 -1.55026643 0 0 Z M-7.3125 4.0625 C-7.99743373 6.92028033 -7.99743373 6.92028033 -8.3125 10.0625 C-7.3225 11.5475 -7.3225 11.5475 -6.3125 13.0625 C-5.3225 12.7325 -4.3325 12.4025 -3.3125 12.0625 C-2.29709888 7.96026415 -2.29709888 7.96026415 -3.3125 4.0625 C-4.6325 4.0625 -5.9525 4.0625 -7.3125 4.0625 Z " fill="#6A6A6C" transform="translate(83.3125,84.9375)"/>
<path d="M0 0 C10.17417417 -0.36336336 10.17417417 -0.36336336 13.34375 1.03125 C15.84144632 4.00020978 15.42880443 7.0048165 15.25 10.6875 C15.23195313 11.38939453 15.21390625 12.09128906 15.1953125 12.81445312 C15.14826213 14.54355436 15.07651873 16.27195205 15 18 C13.35 18 11.7 18 10 18 C9.67 14.04 9.34 10.08 9 6 C8.01 6 7.02 6 6 6 C5.67 9.96 5.34 13.92 5 18 C3.35 18 1.7 18 0 18 C0 12.06 0 6.12 0 0 Z " fill="#696A6C" transform="translate(296,84)"/>
<path d="M0 0 C0 1.32 0 2.64 0 4 C-3 5 -3 5 -6 5 C-7.00217064 8.58327753 -7.00217064 8.58327753 -6 12 C-4.35 12 -2.7 12 -1 12 C-0.34 13.32 0.32 14.64 1 16 C-5.21319797 18.31472081 -5.21319797 18.31472081 -8.8125 16.875 C-12.1959799 13.97487437 -12.1959799 13.97487437 -13 11 C-12.91126838 6.61665785 -12.4621829 3.69327434 -10 0 C-6.30581799 -1.231394 -3.7943739 -0.64432764 0 0 Z " fill="#6A696C" transform="translate(210,85)"/>
<path d="M0 0 C1.65 0 3.3 0 5 0 C5 9.57 5 19.14 5 29 C3.35 29 1.7 29 0 29 C0 19.43 0 9.86 0 0 Z " fill="#686B6C" transform="translate(125,76)"/>
<path d="M0 0 C1.65 0 3.3 0 5 0 C5 6.6 5 13.2 5 20 C5.99 20 6.98 20 8 20 C8 21.32 8 22.64 8 24 C5.125 24.125 5.125 24.125 2 24 C0 22 0 22 -0.22705078 19.75341797 C-0.21657715 18.84221191 -0.20610352 17.93100586 -0.1953125 16.9921875 C-0.18886719 16.00605469 -0.18242187 15.01992187 -0.17578125 14.00390625 C-0.15902344 12.97136719 -0.14226562 11.93882813 -0.125 10.875 C-0.11597656 9.83472656 -0.10695313 8.79445313 -0.09765625 7.72265625 C-0.07403747 5.14820908 -0.04110149 2.57421788 0 0 Z " fill="#6A6A6C" transform="translate(270,78)"/>
<path d="M0 0 C1.65 0 3.3 0 5 0 C5 6.6 5 13.2 5 20 C5.99 20 6.98 20 8 20 C8 21.32 8 22.64 8 24 C5.125 24.125 5.125 24.125 2 24 C0 22 0 22 -0.22705078 19.75341797 C-0.21657715 18.84221191 -0.20610352 17.93100586 -0.1953125 16.9921875 C-0.18886719 16.00605469 -0.18242187 15.01992187 -0.17578125 14.00390625 C-0.15902344 12.97136719 -0.14226562 11.93882813 -0.125 10.875 C-0.11597656 9.83472656 -0.10695313 8.79445313 -0.09765625 7.72265625 C-0.07403747 5.14820908 -0.04110149 2.57421788 0 0 Z " fill="#69686B" transform="translate(260,78)"/>
<path d="M0 0 C1.65 0 3.3 0 5 0 C5 6.6 5 13.2 5 20 C5.99 20 6.98 20 8 20 C8 21.32 8 22.64 8 24 C5.125 24.125 5.125 24.125 2 24 C0 22 0 22 -0.22705078 19.75341797 C-0.21657715 18.84221191 -0.20610352 17.93100586 -0.1953125 16.9921875 C-0.18886719 16.00605469 -0.18242187 15.01992187 -0.17578125 14.00390625 C-0.15902344 12.97136719 -0.14226562 11.93882813 -0.125 10.875 C-0.11597656 9.83472656 -0.10695312 8.79445313 -0.09765625 7.72265625 C-0.07403747 5.14820908 -0.04110149 2.57421788 0 0 Z " fill="#696A6C" transform="translate(188,78)"/>
<path d="M0 0 C1.65 0 3.3 0 5 0 C5 6.6 5 13.2 5 20 C5.99 20 6.98 20 8 20 C8 21.32 8 22.64 8 24 C5.125 24.125 5.125 24.125 2 24 C0 22 0 22 -0.22705078 19.75341797 C-0.21657715 18.84221191 -0.20610352 17.93100586 -0.1953125 16.9921875 C-0.18886719 16.00605469 -0.18242188 15.01992187 -0.17578125 14.00390625 C-0.15902344 12.97136719 -0.14226563 11.93882813 -0.125 10.875 C-0.11597656 9.83472656 -0.10695312 8.79445313 -0.09765625 7.72265625 C-0.07403747 5.14820908 -0.04110149 2.57421788 0 0 Z " fill="#6A6A6C" transform="translate(47,78)"/>
<path d="M0 0 C1.65 0 3.3 0 5 0 C5 6.6 5 13.2 5 20 C5.99 20 6.98 20 8 20 C8 21.32 8 22.64 8 24 C5.125 24.125 5.125 24.125 2 24 C0 22 0 22 -0.22705078 19.75341797 C-0.21657715 18.84221191 -0.20610352 17.93100586 -0.1953125 16.9921875 C-0.18886719 16.00605469 -0.18242188 15.01992187 -0.17578125 14.00390625 C-0.15902344 12.97136719 -0.14226563 11.93882813 -0.125 10.875 C-0.11597656 9.83472656 -0.10695312 8.79445313 -0.09765625 7.72265625 C-0.07403747 5.14820908 -0.04110149 2.57421788 0 0 Z " fill="#6A696C" transform="translate(36,78)"/>
<path d="M0 0 C10.75 -0.125 10.75 -0.125 13 1 C12.3125 2.9375 12.3125 2.9375 11 5 C9.35 5.33 7.7 5.66 6 6 C5.67 9.96 5.34 13.92 5 18 C3.35 18 1.7 18 0 18 C0 12.06 0 6.12 0 0 Z " fill="#686B6C" transform="translate(57,84)"/>
<path d="M0 0 C1.65 0 3.3 0 5 0 C5 5.61 5 11.22 5 17 C3.35 17 1.7 17 0 17 C0 11.39 0 5.78 0 0 Z " fill="#6A6A6C" transform="translate(27,85)"/>
<path d="M0 0 C4.62 0 9.24 0 14 0 C14 0.66 14 1.32 14 2 C12.02 2.99 10.04 3.98 8 5 C7.34 4.34 6.68 3.68 6 3 C6.33 2.34 6.66 1.68 7 1 C4.69 1 2.38 1 0 1 C0 0.67 0 0.34 0 0 Z " fill="#235FA0" transform="translate(168,14)"/>
<path d="M0 0 C2.35333796 4.70667591 2.17102038 6.8693886 2 12 C1.34 12 0.68 12 0 12 C0 11.34 0 10.68 0 10 C-0.66 10 -1.32 10 -2 10 C-1.34 6.7 -0.68 3.4 0 0 Z " fill="#2459A0" transform="translate(270,34)"/>
<path d="M0 0 C2.3828125 0.0234375 2.3828125 0.0234375 5.125 0.375 C6.03507813 0.48585938 6.94515625 0.59671875 7.8828125 0.7109375 C8.93082031 0.85402344 8.93082031 0.85402344 10 1 C10 1.33 10 1.66 10 2 C6.97265625 2.24414062 6.97265625 2.24414062 3.9453125 2.48828125 C1.60480784 2.87393036 1.60480784 2.87393036 0 6 C-0.66 4.68 -1.32 3.36 -2 2 C-1.34 1.34 -0.68 0.68 0 0 Z " fill="#205FA0" transform="translate(238,20)"/>
<path d="M0 0 C1.65 0 3.3 0 5 0 C5 1.32 5 2.64 5 4 C3.35 4 1.7 4 0 4 C0 2.68 0 1.36 0 0 Z " fill="#6D6B6E" transform="translate(27,78)"/>
<path d="M0 0 C0.66 0 1.32 0 2 0 C2 1.98 2 3.96 2 6 C1.01 6 0.02 6 -1 6 C-1.042721 4.33388095 -1.04063832 2.66617115 -1 1 C-0.67 0.67 -0.34 0.34 0 0 Z " fill="#0E62A6" transform="translate(268,44)"/>
</svg>
