<?xml version="1.0" encoding="UTF-8"?>
<svg width="32px" height="32px" viewBox="0 0 32 32" version="1.1" xmlns="http://www.w3.org/2000/svg" xmlns:xlink="http://www.w3.org/1999/xlink">
    <!-- Generator: sketchtool 63.1 (101010) - https://sketch.com -->
    <title>94743842-3EDC-49A6-8F03-6FA53803DE7E@svg</title>
    <desc>Created with sketchtool.</desc>
    <g id="Components" stroke="none" stroke-width="1" fill="none" fill-rule="evenodd">
        <g id="C.002-FOOTER-L" transform="translate(-664.000000, -2420.000000)">
            <g id="Group-8" transform="translate(0.000000, 2340.000000)">
                <g id="Group-9" transform="translate(512.000000, 40.000000)">
                    <g id="Group-11" transform="translate(144.000000, 32.000000)">
                        <rect id="Rectangle" opacity="0.7" x="0" y="0" width="48" height="48"></rect>
                        <g id="instagram" transform="translate(8.000000, 8.000000)" fill="#FFFFFF" fill-rule="nonzero">
                            <path d="M9.28,0 L22.72,0 C27.84,0 32,4.16 32,9.28 L32,22.72 C32,27.8452025 27.8452025,32 22.72,32 L9.28,32 C4.16,32 0,27.84 0,22.72 L0,9.28 C0,4.15479752 4.15479752,0 9.28,0 M8.96,3.2 C5.77883984,3.2 3.2,5.77883984 3.2,8.96 L3.2,23.04 C3.2,26.224 5.776,28.8 8.96,28.8 L23.04,28.8 C26.2211602,28.8 28.8,26.2211602 28.8,23.04 L28.8,8.96 C28.8,5.776 26.224,3.2 23.04,3.2 L8.96,3.2 M24.4,5.6 C25.5045695,5.6 26.4,6.4954305 26.4,7.6 C26.4,8.7045695 25.5045695,9.6 24.4,9.6 C23.2954305,9.6 22.4,8.7045695 22.4,7.6 C22.4,6.4954305 23.2954305,5.6 24.4,5.6 M16,8 C20.418278,8 24,11.581722 24,16 C24,20.418278 20.418278,24 16,24 C11.581722,24 8,20.418278 8,16 C8,11.581722 11.581722,8 16,8 M16,11.2 C13.3490332,11.2 11.2,13.3490332 11.2,16 C11.2,18.6509668 13.3490332,20.8 16,20.8 C18.6509668,20.8 20.8,18.6509668 20.8,16 C20.8,13.3490332 18.6509668,11.2 16,11.2 L16,11.2 Z" id="Shape"></path>
                        </g>
                    </g>
                </g>
            </g>
        </g>
    </g>
</svg>