<?xml version="1.0" encoding="UTF-8"?>
<svg width="32px" height="32px" viewBox="0 0 32 32" version="1.1" xmlns="http://www.w3.org/2000/svg" xmlns:xlink="http://www.w3.org/1999/xlink">
    <!-- Generator: sketchtool 63.1 (101010) - https://sketch.com -->
    <title>74B0D448-81F5-425C-AD6B-D1F9544D1F13@svg</title>
    <desc>Created with sketchtool.</desc>
    <g id="Components" stroke="none" stroke-width="1" fill="none" fill-rule="evenodd">
        <g id="C.002-FOOTER-L" transform="translate(-520.000000, -2420.000000)">
            <g id="Group-8" transform="translate(0.000000, 2340.000000)">
                <g id="Group-9" transform="translate(512.000000, 40.000000)">
                    <g id="Group-14" transform="translate(0.000000, 32.000000)">
                        <rect id="Rectangle" opacity="0.7" x="0" y="0" width="48" height="48"></rect>
                        <g id="linkedin-box" transform="translate(8.000000, 8.000000)" fill="#FFFFFF" fill-rule="nonzero">
                            <path d="M28.4444444,0 C30.4081236,0 32,1.59187645 32,3.55555556 L32,28.4444444 C32,30.4081236 30.4081236,32 28.4444444,32 L3.55555556,32 C1.59187645,32 0,30.4081236 0,28.4444444 L0,3.55555556 C0,1.59187645 1.59187645,0 3.55555556,0 L28.4444444,0 M27.5555556,27.5555556 L27.5555556,18.1333333 C27.5555556,14.9325364 24.960797,12.3377778 21.76,12.3377778 C20.2488889,12.3377778 18.4888889,13.2622222 17.6355556,14.6488889 L17.6355556,12.6755556 L12.6755556,12.6755556 L12.6755556,27.5555556 L17.6355556,27.5555556 L17.6355556,18.7911111 C17.6355556,17.4222222 18.7377778,16.3022222 20.1066667,16.3022222 C21.481242,16.3022222 22.5955556,17.4165357 22.5955556,18.7911111 L22.5955556,27.5555556 L27.5555556,27.5555556 M6.89777778,9.88444444 C8.54726823,9.88444444 9.88444444,8.54726823 9.88444444,6.89777778 C9.88444444,5.24444444 8.55111111,3.89333333 6.89777778,3.89333333 C5.23846893,3.89333333 3.89333333,5.23846893 3.89333333,6.89777778 C3.89333333,8.55111111 5.24444444,9.88444444 6.89777778,9.88444444 M9.36888889,27.5555556 L9.36888889,12.6755556 L4.44444444,12.6755556 L4.44444444,27.5555556 L9.36888889,27.5555556 Z" id="Shape"></path>
                        </g>
                    </g>
                </g>
            </g>
        </g>
    </g>
</svg>