<?xml version="1.0" encoding="UTF-8"?>
<svg width="37px" height="30px" viewBox="0 0 37 30" version="1.1" xmlns="http://www.w3.org/2000/svg" xmlns:xlink="http://www.w3.org/1999/xlink">
    <title>twitter</title>
    <g id="Page-1" stroke="none" stroke-width="1" fill="none" fill-rule="evenodd">
        <g id="twitter" transform="translate(-6.000000, -9.000000)" fill="#FFFFFF" fill-rule="nonzero">
            <path d="M43,12.5294118 C41.6381453,13.1470588 40.1701721,13.5529412 38.6491396,13.7470588 C40.2055449,12.8117647 41.4082218,11.3294118 41.9741874,9.54705882 C40.5062141,10.4294118 38.8790631,11.0470588 37.1634799,11.4 C35.7662524,9.88235294 33.8030593,9 31.5745698,9 C27.41826,9 24.0224665,12.3882353 24.0224665,16.5705882 C24.0224665,17.1705882 24.0932122,17.7529412 24.2170172,18.3 C17.9206501,17.9823529 12.3140535,14.9647059 8.58221797,10.3941176 C7.92782027,11.5058824 7.55640535,12.8117647 7.55640535,14.1882353 C7.55640535,16.8176471 8.88288719,19.1470588 10.9345124,20.4705882 C9.67877629,20.4705882 8.51147228,20.1176471 7.48565966,19.5882353 C7.48565966,19.5882353 7.48565966,19.5882353 7.48565966,19.6411765 C7.48565966,23.3117647 10.1032505,26.3823529 13.5697897,27.0705882 C12.9330784,27.2470588 12.2609943,27.3352941 11.5712237,27.3352941 C11.0936902,27.3352941 10.6161568,27.2823529 10.1563098,27.1941176 C11.1113767,30.1764706 13.8881453,32.4 17.2308795,32.4529412 C14.6486616,34.5 11.376673,35.7 7.8040153,35.7 C7.20267686,35.7 6.60133843,35.6647059 6,35.5941176 C9.36042065,37.7470588 13.3575526,39 17.6376673,39 C31.5745698,39 39.2327916,27.4588235 39.2327916,17.4529412 C39.2327916,17.1176471 39.2327916,16.8 39.2151052,16.4647059 C40.7007648,15.4058824 41.9741874,14.0647059 43,12.5294118 Z" id="Path"></path>
        </g>
    </g>
</svg>