<svg id="Line" xmlns="http://www.w3.org/2000/svg" viewBox="0 0 64 64"><path d="M32,4A28,28,0,1,0,60,32,28.03146,28.03146,0,0,0,32,4Zm0,3c4.46851,0,8.4245,6.17993,10.21161,14.83008H21.78839C23.5755,13.17993,27.53149,7,32,7ZM42.73047,24.83008A52.01026,52.01026,0,0,1,43.22266,32a52.01026,52.01026,0,0,1-.49219,7.16992H21.26953a52.46958,52.46958,0,0,1,0-14.33984ZM24.43109,8.17432C21.83246,11.33484,19.8175,16.104,18.715,21.83008H9.17059A25.11971,25.11971,0,0,1,24.43109,8.17432ZM7,32a24.91407,24.91407,0,0,1,1.053-7.16992H18.23083a56.90688,56.90688,0,0,0,0,14.33984H8.053A24.91407,24.91407,0,0,1,7,32ZM9.17059,42.16992H18.715c1.10253,5.72608,3.11749,10.49524,5.71612,13.65576A25.11971,25.11971,0,0,1,9.17059,42.16992ZM32,57c-4.46851,0-8.4245-6.17993-10.21161-14.83008H42.21161C40.4245,50.82007,36.46851,57,32,57Zm7.56891-1.17432C42.16754,52.66516,44.1825,47.896,45.285,42.16992h9.54438A25.11971,25.11971,0,0,1,39.56891,55.82568ZM57,32a24.91407,24.91407,0,0,1-1.053,7.16992H45.76917A55.88016,55.88016,0,0,0,46.22266,32a55.88016,55.88016,0,0,0-.45349-7.16992H55.947A24.91407,24.91407,0,0,1,57,32ZM45.285,21.83008C44.1825,16.104,42.16754,11.33484,39.56891,8.17432a25.11971,25.11971,0,0,1,15.2605,13.65576Z"/></svg>