<?xml version="1.0" encoding="UTF-8"?>
<svg width="36px" height="25px" viewBox="0 0 36 25" version="1.1" xmlns="http://www.w3.org/2000/svg" xmlns:xlink="http://www.w3.org/1999/xlink">
    <!-- Generator: sketchtool 63.1 (101010) - https://sketch.com -->
    <title>E6FAD6B3-6290-4745-94F1-4E25C2A21529@svg</title>
    <desc>Created with sketchtool.</desc>
    <g id="Components" stroke="none" stroke-width="1" fill="none" fill-rule="evenodd">
        <g id="C.002-FOOTER-L" transform="translate(-590.000000, -2423.000000)">
            <g id="Group-8" transform="translate(0.000000, 2340.000000)">
                <g id="Group-9" transform="translate(512.000000, 40.000000)">
                    <g id="Group-12" transform="translate(72.000000, 32.000000)">
                        <rect id="Rectangle" opacity="0.7" x="0" y="0" width="48" height="48"></rect>
                        <g id="youtube" transform="translate(6.000000, 11.000000)" fill="#FFFFFF" fill-rule="nonzero">
                            <path d="M15,18 L24,12.5 L15,7 L15,18 M35.208,3.875 C35.442,4.71428571 35.604,5.83928571 35.712,7.26785714 C35.838,8.69642857 35.892,9.92857143 35.892,11 L36,12.5 C36,16.4107143 35.712,19.2857143 35.208,21.125 C34.758,22.7321429 33.714,23.7678571 32.094,24.2142857 C31.248,24.4464286 29.7,24.6071429 27.324,24.7142857 C24.984,24.8392857 22.842,24.8928571 20.862,24.8928571 L18,25 C10.458,25 5.76,24.7142857 3.906,24.2142857 C2.286,23.7678571 1.242,22.7321429 0.792,21.125 C0.558,20.2857143 0.396,19.1607143 0.288,17.7321429 C0.162,16.3035714 0.108,15.0714286 0.108,14 L0,12.5 C0,8.58928571 0.288,5.71428571 0.792,3.875 C1.242,2.26785714 2.286,1.23214286 3.906,0.785714286 C4.752,0.553571429 6.3,0.392857143 8.676,0.285714286 C11.016,0.160714286 13.158,0.107142857 15.138,0.107142857 L18,0 C25.542,0 30.24,0.285714286 32.094,0.785714286 C33.714,1.23214286 34.758,2.26785714 35.208,3.875 Z" id="Shape"></path>
                        </g>
                    </g>
                </g>
            </g>
        </g>
    </g>
</svg>